<?xml version="1.0" encoding="UTF-8" standalone="no"?>
<!-- Created with Inkscape (http://www.inkscape.org/) -->

<svg
   xmlns:dc="http://purl.org/dc/elements/1.1/"
   xmlns:cc="http://creativecommons.org/ns#"
   xmlns:rdf="http://www.w3.org/1999/02/22-rdf-syntax-ns#"
   xmlns:svg="http://www.w3.org/2000/svg"
   xmlns="http://www.w3.org/2000/svg"
   xmlns:sodipodi="http://sodipodi.sourceforge.net/DTD/sodipodi-0.dtd"
   xmlns:inkscape="http://www.inkscape.org/namespaces/inkscape"
   id="svg2"
   version="1.1"
   inkscape:version="0.48.2 r9819"
   width="211.51485"
   height="241.57756"
   xml:space="preserve"
   sodipodi:docname="Science Int cobrand inline reversed.eps"><metadata
     id="metadata8"><rdf:RDF><cc:Work
         rdf:about=""><dc:format>image/svg+xml</dc:format><dc:type
           rdf:resource="http://purl.org/dc/dcmitype/StillImage" /><dc:title></dc:title></cc:Work></rdf:RDF></metadata><defs
     id="defs6"><clipPath
       clipPathUnits="userSpaceOnUse"
       id="clipPath18"><path
         d="m 0,0 9599,0 0,1952.64 -9599,0 L 0,0 z"
         id="path20"
         inkscape:connector-curvature="0" /></clipPath></defs><sodipodi:namedview
     pagecolor="#ffffff"
     bordercolor="#666666"
     borderopacity="1"
     objecttolerance="10"
     gridtolerance="10"
     guidetolerance="10"
     inkscape:pageopacity="0"
     inkscape:pageshadow="2"
     inkscape:window-width="640"
     inkscape:window-height="480"
     id="namedview4"
     showgrid="false"
     fit-margin-top="0"
     fit-margin-left="0"
     fit-margin-right="0"
     fit-margin-bottom="0"
     inkscape:zoom="0.30586519"
     inkscape:cx="80.21234"
     inkscape:cy="-74.015514"
     inkscape:window-x="0"
     inkscape:window-y="0"
     inkscape:window-maximized="0"
     inkscape:current-layer="g10" /><g
     id="g10"
     inkscape:groupmode="layer"
     inkscape:label="ink_ext_XXXXXX"
     transform="matrix(1.25,0,0,-1.25,-519.72516,244.08)"><path
       inkscape:connector-curvature="0"
       id="path22"
       style="fill:#ffffff;fill-opacity:1;fill-rule:nonzero;stroke:none"
       d="m 572.223,137.1 c -2.956,-0.532 -8.46,-1.146 -8.46,-1.146 0.02,-0.131 0.055,-2.703 0.05,-3.55 -0.159,-29.603 -11.019,-58.9528 -32.989,-80.0091 32.064,18.734 49.791,53.1641 54.168,88.2991 -4.138,-1.557 -6.816,-2.525 -12.769,-3.594" /><path
       inkscape:connector-curvature="0"
       id="path24"
       style="fill:#ffffff;fill-opacity:1;fill-rule:nonzero;stroke:none"
       d="m 558.163,135.974 c -0.268,9.472 -1.564,18.938 -3.706,28.167 -9.88,-8.168 -20.965,-12.761 -20.965,-12.761 0,0 2.761,-10.63 3.547,-15.364 2.4,-14.498 2.094,-29.328 -1.411,-43.7441 -4.93,-20.2617 -16.27,-37.8321 -31.14,-52.6981 19.616,11.3641 35.676,28.1024 44.756,48.4942 6.759,15.182 9.382,31.552 8.919,47.906" /><path
       inkscape:connector-curvature="0"
       id="path26"
       style="fill:#ffffff;fill-opacity:1;fill-rule:nonzero;stroke:none"
       d="m 528.01,149.962 c -3.254,10.697 -7.944,21.046 -13.736,30.776 -3.997,-7.539 -16.253,-18.194 -18.025,-19.712 3.437,-5.832 6.399,-14 7.428,-17.244 1.246,-3.603 2.33,-7.265 3.238,-10.975 2.063,-8.436 3.24,-17.171 3.24,-25.969 0,-3.858 -0.225,-7.7282 -0.705,-11.5868 C 507.809,82.0449 503.702,69.3879 497.689,57.6609 491.95,46.493 484.931,36.618 478.896,26.6191 c -0.833,-1.3761 -1.657,-2.75 -2.466,-4.1242 11.663,9.3 23.244,18.8449 32.831,30.2102 9.566,11.341 16.692,24.407 20.499,38.589 5.267,19.6239 4.027,39.6899 -1.75,58.6679" /><path
       inkscape:connector-curvature="0"
       id="path100"
       style="fill:#ffffff;fill-opacity:1;fill-rule:nonzero;stroke:none"
       d="m 455.135,134.495 -5.081,-0.216 -0.846,-5.013 -3.335,3.838 -4.449,-2.463 0.917,5 -4.694,1.942 4.478,2.398 -1.409,4.883 4.669,-2.004 2.36,3.326 0.576,0.819 1.345,-4.901 5.076,0.291 -2.999,-4.109 3.392,-3.791 z m 35.961,23.03 c -0.016,0.031 -0.033,0.062 -0.049,0.093 -3.864,7.534 -14.475,24.101 -31.064,37.646 -3.338,-12.109 -16.264,-31.498 -25.21,-45.685 -15.285,-24.233 -20.675,-46.671 -18.548,-68.2919 3.697,-37.5672 29.263,-66.0539 32.162,-69.0391 0.054,-0.0582 0.109,-0.1171 0.164,-0.173 3.524,-3.61211 7.355,-6.9418 11.283,-10.07305 0.462,4.20117 7.576,18.00315 11.173,23.53125 10.582,16.2598 27.348,37.1609 32.325,70.3285 2.539,16.9173 -1.268,41.6333 -12.236,61.6633" /></g></svg>