<?xml version="1.0" encoding="UTF-8" standalone="no"?>
<!-- Created with Inkscape (http://www.inkscape.org/) -->

<svg
   xmlns:dc="http://purl.org/dc/elements/1.1/"
   xmlns:cc="http://creativecommons.org/ns#"
   xmlns:rdf="http://www.w3.org/1999/02/22-rdf-syntax-ns#"
   xmlns:svg="http://www.w3.org/2000/svg"
   xmlns="http://www.w3.org/2000/svg"
   xmlns:sodipodi="http://sodipodi.sourceforge.net/DTD/sodipodi-0.dtd"
   xmlns:inkscape="http://www.inkscape.org/namespaces/inkscape"
   id="svg2"
   version="1.1"
   inkscape:version="0.48.2 r9819"
   width="587.55048"
   height="582.33502"
   xml:space="preserve"
   sodipodi:docname="nescent_logo_solid.eps"><metadata
     id="metadata8"><rdf:RDF><cc:Work
         rdf:about=""><dc:format>image/svg+xml</dc:format><dc:type
           rdf:resource="http://purl.org/dc/dcmitype/StillImage" /><dc:title></dc:title></cc:Work></rdf:RDF></metadata><defs
     id="defs6"><clipPath
       clipPathUnits="userSpaceOnUse"
       id="clipPath18"><path
         d="m 0,0 4990.93,0 0,4688 L 0,4688 0,0 z"
         id="path20"
         inkscape:connector-curvature="0" /></clipPath></defs><sodipodi:namedview
     pagecolor="#ffffff"
     bordercolor="#666666"
     borderopacity="1"
     objecttolerance="10"
     gridtolerance="10"
     guidetolerance="10"
     inkscape:pageopacity="0"
     inkscape:pageshadow="2"
     inkscape:window-width="859"
     inkscape:window-height="656"
     id="namedview4"
     showgrid="false"
     fit-margin-top="0"
     fit-margin-left="0"
     fit-margin-right="0"
     fit-margin-bottom="0"
     inkscape:zoom="0.40272178"
     inkscape:cx="-163.66014"
     inkscape:cy="293.00624"
     inkscape:window-x="0"
     inkscape:window-y="0"
     inkscape:window-maximized="0"
     inkscape:current-layer="g10" /><g
     id="g10"
     inkscape:groupmode="layer"
     inkscape:label="ink_ext_XXXXXX"
     transform="matrix(1.25,0,0,-1.25,-36.082,582.335)"><path
       inkscape:connector-curvature="0"
       id="path22"
       style="fill:#ffffff;fill-opacity:1;fill-rule:nonzero;stroke:none"
       d="m 265.671,88.3012 c -57.991,0.0019 -105,47.0088 -104.999,105.0018 -0.002,57.989 47.008,104.998 104.999,104.998 57.989,0 105,-47.009 105.002,-104.998 0,-57.993 -47.013,-105.0018 -105.002,-105.0018 z M 381.396,262.332 263.885,465.868 146.375,262.331 28.8656,58.8031 l 470.0404,0 -117.51,203.5289" /><path
       inkscape:connector-curvature="0"
       id="path24"
       style="fill:#ffffff;fill-opacity:1;fill-rule:evenodd;stroke:none"
       d="m 207.862,167.543 c -1.587,0.269 -5.246,2.91 -6.997,3.5 -5.676,1.924 -16.036,1.422 -16.716,-1.945 -1.334,-6.536 11.259,-6.063 16.328,-6.61 5.797,-0.621 9.778,-2.445 16.328,-1.553 1.844,1.528 4.299,2.44 4.669,5.442 -2.768,2.394 -9.182,0.412 -13.612,1.166 z m 118.587,-1.555 c 4.101,-0.281 7.781,-1.486 10.107,-1.166 6.486,0.893 2.133,14.92 -0.777,16.719 -5.041,3.115 -7.686,-3.106 -11.662,-3.111 -1.909,-0.004 -3.836,2.295 -6.223,2.332 -1.744,0.027 -5.189,-1.721 -6.996,-2.717 -3.877,-2.154 -6.725,-5.197 -5.443,-9.725 -3.391,-1.404 -9.897,0.307 -11.668,-2.72 -0.764,-3.024 -0.789,-8.174 1.947,-8.944 4.906,-0.758 10.389,1.272 13.607,3.502 0.573,3.777 -1.521,5.291 -1.556,7.387 4.861,-0.473 11.689,-1.082 18.664,-1.557 z m -112.755,26.049 c -4.414,1.328 -6.356,-2.891 -10.11,-2.721 -1.562,0.071 -3.056,1.784 -4.666,1.948 -6.603,0.66 -11.339,-4.375 -12.83,-9.721 2.423,-2.043 5.344,-0.709 8.555,-1.557 4.223,-1.117 7.378,-4.926 12.441,-5.056 5.768,-0.151 10.356,1.564 16.331,3.5 -1.348,5.818 -4.122,11.927 -9.721,13.607 z m 26.441,7 c 2.256,-4.828 3.278,-12.424 7.387,-16.33 1.758,-1.67 5.029,-3.457 8.164,-2.723 7.767,1.819 5.594,18.532 2.334,24.108 -0.797,1.359 -3.6,4.437 -5.834,5.441 -2.07,0.934 -4.504,0.525 -6.996,1.168 -8.423,2.176 -13.047,8.934 -18.277,7.002 0.175,-8.914 9.583,-10.887 13.222,-18.666 z m -52.099,2.721 c 4.625,-1.717 20.197,-3.42 21.382,1.168 1.574,6.082 -19.31,17.265 -26.826,16.326 -4.814,-7.332 -1.761,-14.819 5.444,-17.494 z m 142.297,29.937 c -3.015,-4.375 -6.273,-27.531 1.17,-27.994 3.207,-0.195 5.899,2.883 6.997,5.832 1.244,3.336 0.019,7.359 0.39,10.889 0.541,5.197 3.963,7.068 3.498,13.221 -4.287,3.298 -9.998,1.024 -12.055,-1.948 z m -30.324,4.669 c -3.826,-6.538 -9.513,-13.411 -9.33,-22.552 0.047,-2.295 0.578,-7.664 1.166,-10.111 0.92,-3.838 5.391,-10.635 8.555,-11.277 3.601,-0.725 6.994,0.906 8.551,1.945 3.767,2.522 8.388,13.756 8.554,19.053 0.266,8.412 -7.099,8.963 -8.166,15.162 -0.953,5.558 3.401,11.106 0.391,15.553 -5.094,1.475 -7.453,-3.906 -9.721,-7.773 z m -55.599,1.941 c -2.712,-1.717 -6.878,-5.991 -6.609,-8.944 0.42,-4.652 7.095,-5.886 10.497,-8.554 4.813,-8.85 11.619,1.673 14.774,7.001 3.094,5.221 6.039,10.606 4.666,15.94 -6.439,1.806 -17.44,-1.712 -23.328,-5.443 z m -6.999,5.055 c 9.676,-2.6 7.422,15.041 1.556,16.33 -2.375,-3.383 -2.203,-11.199 -1.556,-16.33 z m 5.056,27.603 c 0.364,-8.4 7.429,-19.645 12.053,-19.826 2.719,-0.109 5.6,2.449 5.83,5.441 0.404,5.225 -4.701,7.855 -7.775,11.665 -3.431,4.252 -4.293,9.425 -7.776,12.053 -0.26,-0.003 -0.517,-10e-4 -0.777,-10e-4 -0.451,-3.265 -1.719,-5.595 -1.555,-9.332 z m 29.159,15.944 c -0.482,-9.162 6.885,-12.428 12.442,-17.109 1.844,-1.553 5.502,-6.511 7.777,-6.999 4.619,-0.984 7.975,2.723 11.274,5.057 3.535,2.49 7.062,3.94 10.5,5.83 7.498,-4.553 14.24,-9.863 19.83,-16.331 -5.756,-1.979 -16.239,-6.802 -15.164,-15.55 0.81,-6.62 8.181,-2.301 8.548,2.723 4.145,1.56 10.75,0.66 13.614,3.498 3.066,-1.339 3.717,-5.096 5.83,-7.387 0.875,-11.221 9.881,-16.532 10.109,-26.047 -2.564,-1.135 -6.195,5.465 -10.5,5.441 -8.365,-0.049 -2.949,-9.916 2.336,-12.055 2.975,-1.203 6.649,-0.75 8.942,-0.775 1.134,-0.807 1.144,-2.74 1.556,-4.281 1.18,-0.256 4.043,-0.856 4.664,-0.385 1.532,-1.291 0.283,-5.273 0.778,-6.609 -6.254,-1.883 -13.391,1.261 -19.053,-0.391 -4.088,-1.193 -5.752,-6.361 -6.609,-10.885 6.867,-4.709 15.691,1.662 20.218,3.889 0.614,-4.418 -0.644,-9.51 -1.554,-13.609 -6.643,-0.616 -11.35,-3.166 -13.998,-7.778 -0.889,-7.367 2.39,-10.572 7.388,-12.053 -0.517,-1.57 -1.326,-5.128 -3.5,-6.22 -10.547,-1.969 -12.82,12.595 -23.326,10.109 -3.201,-0.756 -4.098,-4.064 -3.113,-7 1.867,-5.566 15.74,-9.164 23.328,-8.164 -1.688,-8.976 -9.594,-15 -15.94,-20.607 -1.732,2.07 -3.869,3.306 -4.277,6.222 -0.283,2.028 1.307,4.139 0.779,6.221 -0.498,1.957 -4.447,4.715 -5.834,6.221 -2.193,2.384 -3.818,4.547 -6.218,5.832 -5.393,-2.67 -10.016,-2.965 -15.166,-4.664 -3.348,-12.463 5.556,-24.032 5.832,-35.379 -14.819,-10.699 -48.699,-11.754 -67.65,-3.891 0.362,4.133 4.135,5.465 5.442,8.944 1.838,4.875 1.115,11.771 0.389,19.05 -0.449,4.487 0.812,9.983 -0.391,13.219 -1.233,3.326 -6.578,5.854 -11.659,5.832 -3.213,-0.012 -6.156,-1.92 -9.723,-2.334 -7.081,-0.822 -14.474,3.127 -21.382,0.391 -0.254,-5.772 -1.373,-13.866 -6.998,-14 -4.547,2.584 -6.4,7.859 -8.168,13.22 1.385,-0.494 3.411,0.385 4.666,1.166 1.766,9.319 -6.537,11.842 -12.441,14.778 -1.885,5.135 -3.852,10.386 -3.887,16.33 2.165,1.849 6.65,1.381 8.554,3.498 -0.267,4.658 -5.915,6.006 -8.168,7.389 -2.172,12.408 1.93,28.621 6.61,38.097 5.008,1.268 12.787,-0.67 16.33,0.391 -0.82,6.049 -5.162,8.577 -11.664,8.943 2.177,5.729 5.889,9.925 9.332,14.384 5.047,-0.134 6.994,-3.373 11.273,-4.275 2.456,4.797 -3.099,7.592 -4.664,10.887 1.127,2.501 3.532,3.724 5.442,5.442 2.433,-2.654 8.634,-4.68 9.331,-10.109 0.268,-2.076 -0.205,-5.445 0,-8.164 0.259,-3.383 2.69,-18.274 5.444,-19.052 3.215,-0.908 5.75,2.53 9.332,2.334 1.325,4.142 -1.33,8.413 -0.777,12.438 0.428,3.122 2.883,5.122 3.111,7.78 0.971,11.334 -8.46,15.482 -15.162,22.55 3.361,2.725 7.34,4.838 11.66,6.607 3.321,-1.862 4.289,-6.077 8.168,-7.386 3.033,2.41 2.614,8.273 4.665,11.662 8.115,3.42 19.849,3.222 31.492,3.114" /><path
       inkscape:connector-curvature="0"
       id="path26"
       style="fill:#ffffff;fill-opacity:1;fill-rule:nonzero;stroke:none"
       d="m 135.962,1.19297 0,47.69613 6.639,0 24.008,-36.836 0,36.836 5.801,0 0,-47.69613 -6.606,0 -24.041,36.83403 0,-36.83403 -5.801,0" /><path
       inkscape:connector-curvature="0"
       id="path28"
       style="fill:#ffffff;fill-opacity:1;fill-rule:nonzero;stroke:none"
       d="m 184.721,1.19297 0,47.69613 26.651,0 0,-5.061 -19.884,0 0,-15.307 16.661,0 0,-4.9961 -16.661,0 0,-17.27305 21.27,0 0,-5.05898 -28.037,0" /><path
       inkscape:connector-curvature="0"
       id="path30"
       style="fill:#ffffff;fill-opacity:1;fill-rule:nonzero;stroke:none"
       d="m 229.838,0 c -3.202,0 -7.295,0.699219 -12.278,2.09609 l 0,6.70313 c 5.37,-2.49219 9.785,-3.73906 13.245,-3.73906 2.663,0 4.806,0.69804 6.429,2.09375 1.622,1.39726 2.433,3.23519 2.433,5.51209 0,1.8692 -0.532,3.459 -1.595,4.7692 -1.064,1.3109 -3.025,2.7718 -5.882,4.3828 l -3.287,1.9011 c -4.06,2.32 -6.924,4.5059 -8.588,6.5579 -1.665,2.0511 -2.498,4.4421 -2.498,7.1699 0,3.6742 1.332,6.6972 3.996,9.0722 2.664,2.3731 6.059,3.561 10.184,3.561 3.674,0 7.552,-0.611 11.634,-1.836 l 0,-6.1871 c -5.027,1.9762 -8.777,2.9641 -11.247,2.9641 -2.342,0 -4.276,-0.6231 -5.801,-1.8691 -1.526,-1.2461 -2.288,-2.8141 -2.288,-4.7051 0,-1.5899 0.559,-2.9977 1.676,-4.2219 1.116,-1.225 3.158,-2.6859 6.123,-4.3828 l 3.416,-1.934 c 4.125,-2.3422 7.004,-4.5551 8.636,-6.6391 1.633,-2.0839 2.45,-4.5859 2.45,-7.507 0,-4.14687 -1.531,-7.47694 -4.593,-9.99101 C 238.942,1.2582 234.886,0 229.838,0" /><path
       inkscape:connector-curvature="0"
       id="path32"
       style="fill:#ffffff;fill-opacity:1;fill-rule:nonzero;stroke:none"
       d="m 276.47,0 c -7.412,0 -13.138,2.17617 -17.178,6.52695 -4.039,4.35005 -6.058,10.51015 -6.058,18.48125 0,7.9488 2.058,14.1148 6.172,18.4977 4.113,4.3832 9.91,6.5742 17.386,6.5742 4.276,0 9.282,-0.6969 15.018,-2.0942 l 0,-6.3488 c -6.531,2.2551 -11.57,3.384 -15.115,3.384 -5.178,0 -9.184,-1.752 -12.02,-5.2539 -2.836,-3.5012 -4.254,-8.443 -4.254,-14.8242 0,-6.0801 1.514,-10.875 4.543,-14.3879 3.03,-3.51213 7.166,-5.26994 12.409,-5.26994 4.511,0 9.345,1.38672 14.502,4.15781 l 0,-5.80078 C 287.169,1.21523 282.035,0 276.47,0" /><path
       inkscape:connector-curvature="0"
       id="path34"
       style="fill:#ffffff;fill-opacity:1;fill-rule:nonzero;stroke:none"
       d="m 305.892,22.4629 15.438,0 c 0,6.5101 -2.428,9.7633 -7.284,9.7633 -4.877,0 -7.595,-3.2532 -8.154,-9.7633 z M 327.548,2.31992 c -4.254,-1.28906 -7.894,-1.932811 -10.923,-1.932811 -5.157,0 -9.362,1.712891 -12.618,5.139841 -3.254,3.42617 -4.882,7.86915 -4.882,13.32615 0,5.3071 1.435,9.6571 4.302,13.0508 2.869,3.3953 6.537,5.0922 11.006,5.0922 4.233,0 7.504,-1.5039 9.813,-4.5121 2.308,-3.0078 3.464,-7.2828 3.464,-12.8258 l -0.033,-1.9652 -22.074,0 c 0.924,-8.31409 4.994,-12.47191 12.213,-12.47191 2.642,0 5.887,0.70899 9.732,2.12696 l 0,-5.02813" /><path
       inkscape:connector-curvature="0"
       id="path36"
       style="fill:#ffffff;fill-opacity:1;fill-rule:nonzero;stroke:none"
       d="m 338.667,1.19297 0,34.99803 6.348,0 0,-6.5738 c 3.352,4.8988 7.455,7.348 12.311,7.348 3.029,0 5.447,-0.9632 7.252,-2.8851 1.804,-1.9242 2.707,-4.5059 2.707,-7.75 l 0,-25.13713 -6.35,0 0,23.07423 c 0,2.6 -0.381,4.4519 -1.143,5.559 -0.763,1.1058 -2.025,1.6597 -3.787,1.6597 -3.888,0 -7.552,-2.5468 -10.99,-7.6379 l 0,-22.65503 -6.348,0" /><path
       inkscape:connector-curvature="0"
       id="path38"
       style="fill:#ffffff;fill-opacity:1;fill-rule:nonzero;stroke:none"
       d="m 390.132,0.387109 c -3.222,0 -5.736,0.923051 -7.541,2.771091 -1.804,1.84766 -2.707,4.41602 -2.707,7.7027 l 0,20.561 -4.383,0 0,4.7691 4.383,0 0,6.3481 6.35,0.6129 0,-6.961 9.152,0 0,-4.7691 -9.152,0 0,-19.4008 c 0,-4.57618 1.976,-6.86524 5.93,-6.86524 0.837,0 1.857,0.14102 3.06,0.42031 l 0,-4.3832 c -1.955,-0.537111 -3.652,-0.805861 -5.092,-0.805861" /></g></svg>