<?xml version="1.0" encoding="UTF-8" standalone="no"?>
<!-- Created with Inkscape (http://www.inkscape.org/) -->

<svg
   xmlns:dc="http://purl.org/dc/elements/1.1/"
   xmlns:cc="http://creativecommons.org/ns#"
   xmlns:rdf="http://www.w3.org/1999/02/22-rdf-syntax-ns#"
   xmlns:svg="http://www.w3.org/2000/svg"
   xmlns="http://www.w3.org/2000/svg"
   xmlns:sodipodi="http://sodipodi.sourceforge.net/DTD/sodipodi-0.dtd"
   xmlns:inkscape="http://www.inkscape.org/namespaces/inkscape"
   id="svg2"
   version="1.1"
   inkscape:version="0.48.2 r9819"
   width="170.5"
   height="170.5"
   xml:space="preserve"
   sodipodi:docname="nserc.pdf"><metadata
     id="metadata8"><rdf:RDF><cc:Work
         rdf:about=""><dc:format>image/svg+xml</dc:format><dc:type
           rdf:resource="http://purl.org/dc/dcmitype/StillImage" /><dc:title></dc:title></cc:Work></rdf:RDF></metadata><defs
     id="defs6" /><sodipodi:namedview
     pagecolor="#ffffff"
     bordercolor="#666666"
     borderopacity="1"
     objecttolerance="10"
     gridtolerance="10"
     guidetolerance="10"
     inkscape:pageopacity="0"
     inkscape:pageshadow="2"
     inkscape:window-width="751"
     inkscape:window-height="480"
     id="namedview4"
     showgrid="false"
     fit-margin-top="0"
     fit-margin-left="0"
     fit-margin-right="0"
     fit-margin-bottom="0"
     inkscape:zoom="0.76935281"
     inkscape:cx="148.18884"
     inkscape:cy="85.247495"
     inkscape:window-x="176"
     inkscape:window-y="9"
     inkscape:window-maximized="0"
     inkscape:current-layer="g10" /><g
     id="g10"
     inkscape:groupmode="layer"
     inkscape:label="nserc"
     transform="matrix(1.25,0,0,-1.25,-68.88907,170.50501)"><path
       style="fill:#ffffff;fill-opacity:1;fill-rule:nonzero;stroke:none"
       d="m 123.31125,136.40401 c -37.667996,0 -68.199994,-30.536 -68.199994,-68.2 0,-37.668 30.531998,-68.20000008 68.199994,-68.20000008 37.664,0 68.2,30.53200008 68.2,68.20000008 0,37.664 -30.536,68.2 -68.2,68.2 z m 0,-18.1 11.075,-19.275 11.375,4.95 -7.075,-31.6 18.15,13.85 4.5,-8.45 15.625,2.15 -4.5,-17.875 5.175,-4.45 -26.425,-21.225 5.75,-11.2 -14.35,0 -3.975,28.05 c -0.015,0.137 -0.142,0.25 -0.275,0.25 -0.137,0 -0.234,-0.113 -0.25,-0.25 l -3.975,-28.05 -5.5,0 -5.05,46.325 c -0.016,0.133 -0.134,0.225 -0.275,0.225 -0.133,0 -0.26,-0.092 -0.275,-0.225 l -5.05,-46.325 -5.45,0 -3.975,28.075 c -0.012,0.132 -0.142,0.25 -0.275,0.25 -0.141,0 -0.259,-0.118 -0.275,-0.25 l -3.975,-28.075 -14.374996,0 5.75,11.2 -26.424998,21.225 5.175,4.45 -4.5,17.875 15.624998,-2.15 4.5,8.45 18.149996,-13.85 -7.075,31.6 11.375,-4.95 11.075,19.275 z"
       id="path34"
       inkscape:connector-curvature="0" /></g></svg>