<?xml version="1.0" encoding="UTF-8" standalone="no"?>
<!-- Created with Inkscape (http://www.inkscape.org/) -->

<svg
   xmlns:dc="http://purl.org/dc/elements/1.1/"
   xmlns:cc="http://creativecommons.org/ns#"
   xmlns:rdf="http://www.w3.org/1999/02/22-rdf-syntax-ns#"
   xmlns:svg="http://www.w3.org/2000/svg"
   xmlns="http://www.w3.org/2000/svg"
   xmlns:sodipodi="http://sodipodi.sourceforge.net/DTD/sodipodi-0.dtd"
   xmlns:inkscape="http://www.inkscape.org/namespaces/inkscape"
   id="svg2"
   version="1.1"
   inkscape:version="0.48.2 r9819"
   width="123.75"
   height="168.75"
   xml:space="preserve"
   sodipodi:docname="s4rc.eps"><metadata
     id="metadata8"><rdf:RDF><cc:Work
         rdf:about=""><dc:format>image/svg+xml</dc:format><dc:type
           rdf:resource="http://purl.org/dc/dcmitype/StillImage" /><dc:title></dc:title></cc:Work></rdf:RDF></metadata><defs
     id="defs6"><clipPath
       clipPathUnits="userSpaceOnUse"
       id="clipPath18"><path
         d="M 0,1349.98 0,0 l 990,0 0,1349.98 -990,0 z"
         id="path20" /></clipPath></defs><sodipodi:namedview
     pagecolor="#ffffff"
     bordercolor="#666666"
     borderopacity="1"
     objecttolerance="10"
     gridtolerance="10"
     guidetolerance="10"
     inkscape:pageopacity="0"
     inkscape:pageshadow="2"
     inkscape:window-width="1150"
     inkscape:window-height="713"
     id="namedview4"
     showgrid="false"
     inkscape:zoom="1.3985185"
     inkscape:cx="61.875"
     inkscape:cy="84.375"
     inkscape:window-x="0"
     inkscape:window-y="0"
     inkscape:window-maximized="0"
     inkscape:current-layer="g10" /><g
     id="g10"
     inkscape:groupmode="layer"
     inkscape:label="ink_ext_XXXXXX"
     transform="matrix(1.25,0,0,-1.25,0,168.75)"><g
       id="g12"
       transform="scale(0.1,0.1)"><g
         id="g14"><g
           id="g16"
           clip-path="url(#clipPath18)"><path
             d="M 495,38.8711 C 185.312,126.609 37.5,331.059 37.5,622.539 l 0,689.941 915,0 0,-689.941 C 952.5,331.059 804.688,126.609 495,38.8711 z M 0,1349.98 0,617.852 C 0,310.16 167.422,87.3906 495,0 822.578,87.3906 990,310.16 990,617.852 l 0,732.128 -990,0"
             style="fill:#ffffff;fill-opacity:1;fill-rule:nonzero;stroke:none"
             id="path22" /><path
             d="m 495,877.797 c 69.023,0 78.359,-28.008 133.945,-27.656 55.391,-0.352 64.883,27.656 133.907,27.656 69.023,0 78.515,-28.008 133.945,-27.656 l 0,64.277 c -55.43,-0.371 -64.922,27.285 -133.945,27.285 -69.024,0 -78.516,-27.656 -133.907,-27.285 -55.586,-0.371 -64.922,27.285 -133.945,27.285 -69.023,0 -78.359,-27.656 -133.945,-27.285 -55.391,-0.371 -64.883,27.285 -133.907,27.285 -69.023,0 -78.554,-27.656 -133.9449,-27.285 l 0,-64.277 c 55.3909,-0.352 64.9219,27.656 133.9449,27.656 69.024,0 78.516,-28.008 133.907,-27.656 55.586,-0.352 64.922,27.656 133.945,27.656"
             style="fill:#ffffff;fill-opacity:1;fill-rule:nonzero;stroke:none"
             id="path24" /><path
             d="M 495,837.047 526.016,501.355 626.797,770.078 588.945,468.5 725.938,706.719 643.984,416.625 816.094,603.672 711.211,370.316 893.008,503.504 C 810.352,326.328 750.859,184.34 495,105.359 239.141,184.34 179.609,326.328 96.9922,503.504 L 278.75,370.316 173.906,603.672 346.016,416.625 264.062,706.719 401.055,468.5 363.203,770.078 463.984,501.355 495,837.047"
             style="fill:#ffffff;fill-opacity:1;fill-rule:nonzero;stroke:none"
             id="path26" /><path
             d="m 425.078,648.184 c 10.391,3.945 21.328,7.91 35.469,10.429 l 5.937,64.805 c -27.422,-3.789 -43.398,-12.754 -62.382,-18.867 l 20.976,-56.367 0,0 z M 320,639.941 c 11.484,-3.593 24.023,-6.113 41.055,-5.937 0.547,0 0.898,0 1.25,0 l -8.047,64.101 c -34.805,1.25 -50.742,14.18 -80.156,21.719 L 320,639.941 l 0,0 z M 93.2031,634.004 c 55.3909,-0.352 64.9219,27.285 133.9449,27.285 12.344,0 22.774,-0.879 31.914,-2.324 l -18.671,65.879 c -4.102,0.176 -8.594,0.371 -13.243,0.371 -69.023,0 -78.554,-27.656 -133.9449,-27.305 l 0,-63.906"
             style="fill:#ffffff;fill-opacity:1;fill-rule:nonzero;stroke:none"
             id="path28" /><path
             d="m 564.922,648.184 20.976,56.367 c -18.984,6.113 -34.96,15.078 -62.382,18.867 l 5.898,-64.805 c 14.18,-2.519 25.117,-6.484 35.508,-10.429 l 0,0 z M 670,639.941 l 45.898,79.883 c -29.414,-7.539 -45.39,-20.469 -80.156,-21.719 l -8.086,-64.101 c 0.391,0 0.742,0 1.289,0 17.032,-0.176 29.571,2.344 41.055,5.937 l 0,0 z m 226.797,-5.937 0,63.906 c -55.43,-0.351 -64.922,27.305 -133.945,27.305 -4.649,0 -9.141,-0.195 -13.282,-0.371 l -18.632,-65.879 c 9.14,1.445 19.531,2.324 31.914,2.324 69.023,0 78.515,-27.637 133.945,-27.285 l 0,0"
             style="fill:#ffffff;fill-opacity:1;fill-rule:nonzero;stroke:none"
             id="path30" /><path
             d="m 389.023,744.59 c 27.969,5.742 44.454,19.394 81.563,23.691 l 6.133,64.449 C 425.43,828.414 412.148,807.246 365.898,806.152 l 23.125,-61.562 0,0 z M 93.2031,742.07 c 55.3909,-0.527 64.9219,27.481 133.9449,27.481 63.633,0 76.563,-23.711 121.563,-27.11 l -8.086,64.981 c -38.711,5.387 -53.945,26.031 -113.477,26.031 -69.023,0 -78.554,-27.652 -133.9449,-27.301 l 0,-64.082"
             style="fill:#ffffff;fill-opacity:1;fill-rule:nonzero;stroke:none"
             id="path32" /><path
             d="m 600.977,744.59 23.125,61.562 c -46.29,1.094 -59.532,22.262 -110.821,26.578 l 6.094,-64.449 c 37.109,-4.297 53.633,-17.949 81.602,-23.691 l 0,0 z m 295.82,-2.52 0,64.082 c -55.43,-0.351 -64.922,27.301 -133.945,27.301 -59.532,0 -74.766,-20.644 -113.477,-26.031 l -8.086,-64.981 c 45,3.399 57.93,27.11 121.563,27.11 69.023,0 78.515,-28.008 133.945,-27.481 l 0,0"
             style="fill:#ffffff;fill-opacity:1;fill-rule:nonzero;stroke:none"
             id="path34" /><path
             d="m 896.797,1249.92 -10.235,-42.71 -5.39,0 c -8.594,12.03 -19.531,21.52 -31.524,27.63 -12.578,6.29 -25.312,9.34 -39.296,9.34 -28.321,0 -52.5,-12.01 -73.321,-36.97 -20.234,-24.61 -30.82,-53.32 -30.82,-86.17 0,-31.23 9.844,-59.61 29.375,-83.83 20.82,-26.03 46.094,-38.944 75.508,-38.944 12.344,0 25.625,2.674 39.609,8.784 9.336,4.13 21.875,10.94 36.953,20.63 1.602,0.55 4.102,0 7.5,-1.06 l -10.195,-35.913 c -13.477,-5.918 -27.461,-10.586 -41.797,-12.754 -14.687,-2.676 -30.664,-3.75 -47.852,-3.75 -38.203,0 -71.367,9.336 -100.39,28.167 -39.649,25.86 -59.727,65 -59.727,117.22 0,45.61 17.383,82.78 52.188,111.13 32.07,26.39 71.523,39.14 118.32,39.14 14.883,0 29.57,-1.44 44.649,-4.86 14.687,-3.42 30.117,-8.61 46.445,-15.08"
             style="fill:#ffffff;fill-opacity:1;fill-rule:nonzero;stroke:none"
             id="path36" /><path
             d="m 350.469,1081.72 c 0,-29.08 -11.641,-54.39 -35.469,-75.92 -23.672,-21.558 -52.734,-32.495 -87.852,-32.495 -33.554,0 -63.828,6.816 -90.546,20.82 -29.063,15.075 -43.3989,34.105 -43.3989,56.365 l 0,214.51 64.9219,0 0,-191.54 c 0,-19.92 6.445,-36.97 18.828,-50.98 12.891,-14 28.672,-20.82 48.047,-20.82 4.102,0 6.602,0 8.242,0 19.18,0 36.914,6.1 52.696,18.13 17.031,13.65 25.82,29.45 25.82,47.93 l 0,197.28 38.711,0 0,-183.28"
             style="fill:#ffffff;fill-opacity:1;fill-rule:nonzero;stroke:none"
             id="path38" /><path
             d="m 523.164,1018.34 c -7.734,-9.14 -16.875,-14.7 -27.812,-17.4 -4.141,-1.073 -8.633,-1.424 -13.086,-1.424 l -29.414,0 0,116.684 34.257,0 c 3.047,0 5.743,-0.36 8.243,-0.73 12.187,-1.97 21.875,-8.43 29.765,-19.02 8.242,-11.31 12.383,-24.06 12.383,-38.42 0,-15.08 -4.844,-28.36 -14.336,-39.69 z m -70.312,222.07 24.375,0 c 6.445,0 12.578,-0.7 18.125,-2.15 8.046,-2.34 15.234,-6.09 21.523,-11.48 10.391,-8.99 15.781,-19.92 15.781,-32.85 0,-13.48 -4.492,-25.66 -12.89,-36.27 -6.68,-8.61 -14.922,-14.36 -24.414,-16.5 -3.79,-1.27 -7.891,-1.62 -12.032,-1.62 l -30.468,0 0,100.87 z m 137.89,-129.06 c -18.086,12.38 -39.258,18.85 -64.18,18.85 l -0.703,3.42 c 21.836,2.5 41.055,10.04 58.086,22.61 17.032,12.04 25.625,26.37 25.625,42 0,18.12 -8.242,33.2 -24.57,45.95 -16.133,12.93 -35.859,20.47 -58.438,20.47 l -136.445,0 0,-285.252 126.758,0 c 28.164,0 51.992,7.891 71.172,24.242 19.726,16.15 29.414,36.27 29.414,59.96 0,19.74 -8.984,35.54 -26.719,47.75"
             style="fill:#ffffff;fill-opacity:1;fill-rule:nonzero;stroke:none"
             id="path40" /></g></g></g></g></svg>