<?xml version="1.0" encoding="UTF-8" standalone="no"?>
<!-- Created with Inkscape (http://www.inkscape.org/) -->

<svg
   xmlns:dc="http://purl.org/dc/elements/1.1/"
   xmlns:cc="http://creativecommons.org/ns#"
   xmlns:rdf="http://www.w3.org/1999/02/22-rdf-syntax-ns#"
   xmlns:svg="http://www.w3.org/2000/svg"
   xmlns="http://www.w3.org/2000/svg"
   xmlns:sodipodi="http://sodipodi.sourceforge.net/DTD/sodipodi-0.dtd"
   xmlns:inkscape="http://www.inkscape.org/namespaces/inkscape"
   width="1223.1138"
   height="484.47748"
   id="svg4019"
   version="1.1"
   inkscape:version="0.48.2 r9819"
   sodipodi:docname="make_workflow.svg">
  <defs
     id="defs4021">
    <inkscape:perspective
       sodipodi:type="inkscape:persp3d"
       inkscape:vp_x="175.71429 : 431.89538 : 1"
       inkscape:vp_y="0 : 1000 : 0"
       inkscape:vp_z="919.80877 : 431.89538 : 1"
       inkscape:persp3d-origin="547.76153 : 256.50168 : 1"
       id="perspective4062" />
  </defs>
  <sodipodi:namedview
     id="base"
     pagecolor="#ffffff"
     bordercolor="#666666"
     borderopacity="1.0"
     inkscape:pageopacity="0.0"
     inkscape:pageshadow="2"
     inkscape:zoom="0.49497475"
     inkscape:cx="588.93405"
     inkscape:cy="126.34223"
     inkscape:document-units="px"
     inkscape:current-layer="layer1"
     showgrid="false"
     inkscape:window-width="1265"
     inkscape:window-height="631"
     inkscape:window-x="106"
     inkscape:window-y="90"
     inkscape:window-maximized="0"
     fit-margin-top="0"
     fit-margin-left="0"
     fit-margin-right="0"
     fit-margin-bottom="0" />
  <metadata
     id="metadata4024">
    <rdf:RDF>
      <cc:Work
         rdf:about="">
        <dc:format>image/svg+xml</dc:format>
        <dc:type
           rdf:resource="http://purl.org/dc/dcmitype/StillImage" />
        <dc:title></dc:title>
      </cc:Work>
    </rdf:RDF>
  </metadata>
  <g
     inkscape:label="Layer 1"
     inkscape:groupmode="layer"
     id="layer1"
     transform="translate(278.5715,-169.31988)">
    <g
       id="g4142"
       transform="translate(-7.1948357,-68.499991)">
      <rect
         y="237.81987"
         x="63.314827"
         height="177.65605"
         width="211.94176"
         id="rect3143"
         style="fill:#6baed6;fill-opacity:1;stroke:none" />
      <text
         sodipodi:linespacing="125%"
         id="text3145"
         y="346.49994"
         x="84.401077"
         style="font-size:40px;font-style:normal;font-weight:normal;line-height:125%;letter-spacing:0px;word-spacing:0px;fill:#ffffff;fill-opacity:1;stroke:none;font-family:Sans"
         xml:space="preserve"><tspan
           style="font-size:56px;font-style:normal;font-variant:normal;font-weight:normal;font-stretch:normal;fill:#ffffff;fill-opacity:1;font-family:Yanone Kaffeesatz;-inkscape-font-specification:Yanone Kaffeesatz"
           y="346.49994"
           x="84.401077"
           id="tspan3147"
           sodipodi:role="line">Taxonomy</tspan></text>
    </g>
    <g
       id="g4137"
       transform="translate(-7.19487,15.499994)">
      <rect
         y="457.81989"
         x="65.017113"
         height="177.65605"
         width="211.94176"
         id="rect3143-8"
         style="fill:#6baed6;fill-opacity:1;stroke:none" />
      <text
         sodipodi:linespacing="125%"
         id="text3145-1"
         y="566.49994"
         x="123.68679"
         style="font-size:40px;font-style:normal;font-weight:normal;line-height:125%;letter-spacing:0px;word-spacing:0px;fill:#ffffff;fill-opacity:1;stroke:none;font-family:Sans"
         xml:space="preserve"><tspan
           style="font-size:56px;font-style:normal;font-variant:normal;font-weight:normal;font-stretch:normal;fill:#ffffff;fill-opacity:1;font-family:Yanone Kaffeesatz;-inkscape-font-specification:Yanone Kaffeesatz"
           y="566.49994"
           x="123.68679"
           id="tspan3147-1"
           sodipodi:role="line">Traits</tspan></text>
    </g>
    <path
       id="path4126"
       d="m -147.2619,192.49315 c 21.76086,0 39.39285,17.63199 39.39285,39.39285 0,5.18057 -1.06443,10.10468 -2.88512,14.6443 16.760014,4.5392 29.147024,19.69643 29.147024,37.87951 0,21.76086 -17.632,39.39286 -39.392854,39.39286 h -111.6131 c -18.1322,0 -32.82737,-14.69559 -32.82737,-32.82738 0,-18.13179 14.69558,-32.82738 32.82737,-32.82738 1.00657,0 1.94913,0.20517 2.93026,0.29503 -1.84654,-4.10342 -2.93026,-8.62991 -2.93026,-13.42599 0,-18.1322 14.69559,-32.82737 32.82738,-32.82737 5.92453,0 11.40629,1.69266 16.20196,4.43702 5.96309,-14.18266 19.97217,-24.13345 36.32186,-24.13345 m 0,-13.13096 c -16.79859,0 -32.22459,7.93766 -41.99607,20.95331 -3.44278,-0.83381 -6.95654,-1.25688 -10.52775,-1.25688 -25.33863,0 -45.95833,20.6197 -45.95833,45.95833 0,0.64137 0.0127,1.26961 0.0385,1.89784 -18.98489,5.6422 -32.86595,23.26148 -32.86595,44.0605 0,25.33863 20.6197,45.95833 45.95833,45.95833 h 111.6131 c 28.967694,0 52.523794,-23.55611 52.523794,-52.52381 0,-19.14493 -10.52774,-36.44373 -26.73625,-45.59928 0.32047,-2.28232 0.47435,-4.60363 0.47435,-6.92453 0,-28.95457 -23.556104,-52.52381 -52.523794,-52.52381 l 0,0 z"
       inkscape:connector-curvature="0"
       style="fill:#ffffff;fill-opacity:1" />
    <path
       inkscape:connector-curvature="0"
       d="m -147.2619,496.49315 c 21.76086,0 39.39285,17.63199 39.39285,39.39285 0,5.18057 -1.06443,10.10468 -2.88512,14.6443 16.760017,4.5392 29.147027,19.69643 29.147027,37.87951 0,21.76086 -17.632,39.39286 -39.392857,39.39286 h -111.6131 c -18.1322,0 -32.82737,-14.69559 -32.82737,-32.82738 0,-18.13179 14.69558,-32.82738 32.82737,-32.82738 1.00657,0 1.94913,0.20517 2.93026,0.29503 -1.84654,-4.10342 -2.93026,-8.62991 -2.93026,-13.42599 0,-18.1322 14.69559,-32.82737 32.82738,-32.82737 5.92453,0 11.40629,1.69266 16.20196,4.43702 5.96309,-14.18266 19.97217,-24.13345 36.32186,-24.13345 m 0,-13.13096 c -16.79859,0 -32.22459,7.93766 -41.99607,20.95331 -3.44278,-0.83381 -6.95654,-1.25688 -10.52775,-1.25688 -25.33863,0 -45.95833,20.6197 -45.95833,45.95833 0,0.64137 0.0127,1.26961 0.0385,1.89784 -18.98489,5.6422 -32.86595,23.26148 -32.86595,44.0605 0,25.33863 20.6197,45.95833 45.95833,45.95833 h 111.6131 c 28.967697,0 52.523797,-23.55611 52.523797,-52.52381 0,-19.14493 -10.52774,-36.44373 -26.73625,-45.59928 0.32047,-2.28232 0.47435,-4.60363 0.47435,-6.92453 0,-28.95457 -23.556107,-52.52381 -52.523797,-52.52381 l 0,0 z"
       id="path4135"
       style="fill:#ffffff;fill-opacity:1;stroke:none" />
    <g
       id="g4245"
       transform="translate(2.6107178,-76)">
      <rect
         y="248.1413"
         x="391.74942"
         height="177.65605"
         width="211.94176"
         id="rect3143-0"
         style="fill:#6baed6;fill-opacity:1;stroke:none" />
      <text
         sodipodi:linespacing="110%"
         id="text3145-2"
         y="321.34531"
         x="412.17285"
         style="font-size:40px;font-style:normal;font-weight:normal;line-height:110.00000238%;letter-spacing:0px;word-spacing:0px;fill:#ffffff;fill-opacity:1;stroke:none;font-family:Sans"
         xml:space="preserve"><tspan
           style="font-size:56px;font-style:normal;font-variant:normal;font-weight:normal;font-stretch:normal;line-height:110.00000238%;fill:#ffffff;fill-opacity:1;font-family:Yanone Kaffeesatz;-inkscape-font-specification:Yanone Kaffeesatz"
           y="321.34531"
           x="412.17285"
           id="tspan3147-5"
           sodipodi:role="line">Cleaned</tspan><tspan
           style="font-size:56px;font-style:normal;font-variant:normal;font-weight:normal;font-stretch:normal;line-height:110.00000238%;fill:#ffffff;fill-opacity:1;font-family:Yanone Kaffeesatz;-inkscape-font-specification:Yanone Kaffeesatz"
           y="382.94531"
           x="412.17285"
           sodipodi:role="line"
           id="tspan4186">taxonomy</tspan></text>
    </g>
    <g
       id="g4251"
       transform="translate(2.6107788,0)">
      <rect
         y="476.1413"
         x="393.45169"
         height="177.65605"
         width="211.94176"
         id="rect3143-8-4"
         style="fill:#6baed6;fill-opacity:1;stroke:none" />
      <text
         sodipodi:linespacing="110%"
         id="text3145-1-2"
         y="554.4693"
         x="434.22018"
         style="font-size:40px;font-style:normal;font-weight:normal;line-height:110.00000238%;letter-spacing:0px;word-spacing:0px;fill:#ffffff;fill-opacity:1;stroke:none;font-family:Sans"
         xml:space="preserve"><tspan
           style="font-size:56px;font-style:normal;font-variant:normal;font-weight:normal;font-stretch:normal;line-height:110.00000238%;fill:#ffffff;fill-opacity:1;font-family:Yanone Kaffeesatz;-inkscape-font-specification:Yanone Kaffeesatz"
           y="554.4693"
           x="434.22018"
           id="tspan3147-1-1"
           sodipodi:role="line">Cleaned</tspan><tspan
           style="font-size:56px;font-style:normal;font-variant:normal;font-weight:normal;font-stretch:normal;line-height:110.00000238%;fill:#ffffff;fill-opacity:1;font-family:Yanone Kaffeesatz;-inkscape-font-specification:Yanone Kaffeesatz"
           y="616.06927"
           x="434.22018"
           sodipodi:role="line"
           id="tspan4188">traits</tspan></text>
    </g>
    <g
       id="g4260"
       transform="translate(0,-30.821442)">
      <rect
         y="354.96274"
         x="732.60052"
         height="177.65605"
         width="211.94176"
         id="rect3143-9"
         style="fill:#6baed6;fill-opacity:1;stroke:none" />
      <text
         sodipodi:linespacing="125%"
         id="text3145-18"
         y="464.09076"
         x="748.99719"
         style="font-size:40px;font-style:normal;font-weight:normal;line-height:125%;letter-spacing:0px;word-spacing:0px;fill:#ffffff;fill-opacity:1;stroke:none;font-family:Sans"
         xml:space="preserve"><tspan
           style="font-size:56px;font-style:normal;font-variant:normal;font-weight:normal;font-stretch:normal;fill:#ffffff;fill-opacity:1;font-family:Yanone Kaffeesatz;-inkscape-font-specification:Yanone Kaffeesatz"
           y="464.09076"
           x="748.99719"
           id="tspan3147-2"
           sodipodi:role="line">Simulation</tspan></text>
    </g>
    <g
       id="g4433"
       transform="matrix(0.42294173,0,0,0.36360394,-88.007872,5.894761)">
      <rect
         y="654.36206"
         x="60.60915"
         height="78.791893"
         width="177.78685"
         id="rect4427"
         style="fill:#fd8d3c;fill-opacity:1;stroke:none" />
      <path
         sodipodi:nodetypes="ccccc"
         inkscape:connector-curvature="0"
         id="rect4429"
         d="M 219.13641,693.758 219.2031,586.61514 326.34596,693.758 219.2031,800.90087 z"
         style="fill:#fd8d3c;fill-opacity:1;stroke:none" />
    </g>
    <g
       transform="matrix(0.42294173,0,0,0.36360394,-88.007872,309.89476)"
       id="g4389">
      <rect
         style="fill:#fd8d3c;fill-opacity:1;stroke:none"
         id="rect4391"
         width="177.78685"
         height="78.791893"
         x="60.60915"
         y="654.36206" />
      <path
         style="fill:#fd8d3c;fill-opacity:1;stroke:none"
         d="M 219.13641,693.758 219.2031,586.61514 326.34596,693.758 219.2031,800.90087 z"
         id="path4393"
         inkscape:connector-curvature="0"
         sodipodi:nodetypes="ccccc" />
    </g>
    <g
       id="g4395"
       transform="matrix(0.42294173,0,0,0.36360394,251.08351,312.71618)">
      <rect
         y="654.36206"
         x="60.60915"
         height="78.791893"
         width="177.78685"
         id="rect4397"
         style="fill:#fd8d3c;fill-opacity:1;stroke:none" />
      <path
         sodipodi:nodetypes="ccccc"
         inkscape:connector-curvature="0"
         id="path4399"
         d="M 219.13641,693.758 219.2031,586.61514 326.34596,693.758 219.2031,800.90087 z"
         style="fill:#fd8d3c;fill-opacity:1;stroke:none" />
    </g>
    <g
       transform="matrix(0.42294173,0,0,0.36360394,249.38121,8.7161782)"
       id="g4401">
      <rect
         style="fill:#fd8d3c;fill-opacity:1;stroke:none"
         id="rect4403"
         width="177.78685"
         height="78.791893"
         x="60.60915"
         y="654.36206" />
      <path
         style="fill:#fd8d3c;fill-opacity:1;stroke:none"
         d="M 219.13641,693.758 219.2031,586.61514 326.34596,693.758 219.2031,800.90087 z"
         id="path4405"
         inkscape:connector-curvature="0"
         sodipodi:nodetypes="ccccc" />
    </g>
    <g
       id="g4420"
       transform="matrix(0.38421576,0.17679922,-0.15199467,0.33031113,706.44878,22.895107)">
      <rect
         y="654.36206"
         x="60.60915"
         height="78.791893"
         width="177.78685"
         id="rect4422"
         style="fill:#fd8d3c;fill-opacity:1;stroke:none" />
      <path
         sodipodi:nodetypes="ccccc"
         inkscape:connector-curvature="0"
         id="path4424"
         d="M 219.13641,693.758 219.2031,586.61514 326.34596,693.758 219.2031,800.90087 z"
         style="fill:#fd8d3c;fill-opacity:1;stroke:none" />
    </g>
    <g
       transform="matrix(0.38421576,-0.17679922,-0.15199467,-0.33031113,706.44878,809.63399)"
       id="g4426">
      <rect
         style="fill:#fd8d3c;fill-opacity:1;stroke:none"
         id="rect4428"
         width="177.78685"
         height="78.791893"
         x="60.60915"
         y="654.36206" />
      <path
         style="fill:#fd8d3c;fill-opacity:1;stroke:none"
         d="M 219.13641,693.758 219.2031,586.61514 326.34596,693.758 219.2031,800.90087 z"
         id="path4430"
         inkscape:connector-curvature="0"
         sodipodi:nodetypes="ccccc" />
    </g>
  </g>
</svg>
