<?xml version="1.0" encoding="UTF-8" standalone="no"?>
<!-- Created with Inkscape (http://www.inkscape.org/) -->

<svg
   xmlns:dc="http://purl.org/dc/elements/1.1/"
   xmlns:cc="http://creativecommons.org/ns#"
   xmlns:rdf="http://www.w3.org/1999/02/22-rdf-syntax-ns#"
   xmlns:svg="http://www.w3.org/2000/svg"
   xmlns="http://www.w3.org/2000/svg"
   xmlns:sodipodi="http://sodipodi.sourceforge.net/DTD/sodipodi-0.dtd"
   xmlns:inkscape="http://www.inkscape.org/namespaces/inkscape"
   width="2241.4617"
   height="1248.2734"
   id="svg6668"
   version="1.1"
   inkscape:version="0.48.2 r9819"
   sodipodi:docname="process_make.svg">
  <defs
     id="defs6670">
    <inkscape:perspective
       id="perspective4062"
       inkscape:persp3d-origin="547.76153 : 256.50168 : 1"
       inkscape:vp_z="919.80877 : 431.89538 : 1"
       inkscape:vp_y="0 : 1000 : 0"
       inkscape:vp_x="175.71429 : 431.89538 : 1"
       sodipodi:type="inkscape:persp3d" />
    <filter
       inkscape:collect="always"
       id="filter9200"
       color-interpolation-filters="sRGB">
      <feGaussianBlur
         inkscape:collect="always"
         stdDeviation="4.2689781"
         id="feGaussianBlur9202" />
    </filter>
    <filter
       inkscape:collect="always"
       id="filter9204"
       color-interpolation-filters="sRGB">
      <feGaussianBlur
         inkscape:collect="always"
         stdDeviation="4.2689781"
         id="feGaussianBlur9206" />
    </filter>
    <filter
       inkscape:collect="always"
       id="filter9208"
       color-interpolation-filters="sRGB">
      <feGaussianBlur
         inkscape:collect="always"
         stdDeviation="4.2689781"
         id="feGaussianBlur9210" />
    </filter>
  </defs>
  <sodipodi:namedview
     id="base"
     pagecolor="#ffffff"
     bordercolor="#666666"
     borderopacity="1.0"
     inkscape:pageopacity="0.0"
     inkscape:pageshadow="2"
     inkscape:zoom="0.175"
     inkscape:cx="208.08323"
     inkscape:cy="534.58369"
     inkscape:document-units="px"
     inkscape:current-layer="layer1"
     showgrid="false"
     inkscape:window-width="1366"
     inkscape:window-height="724"
     inkscape:window-x="22"
     inkscape:window-y="1"
     inkscape:window-maximized="0"
     fit-margin-top="0"
     fit-margin-left="0"
     fit-margin-right="0"
     fit-margin-bottom="0"
     inkscape:snap-global="true" />
  <metadata
     id="metadata6673">
    <rdf:RDF>
      <cc:Work
         rdf:about="">
        <dc:format>image/svg+xml</dc:format>
        <dc:type
           rdf:resource="http://purl.org/dc/dcmitype/StillImage" />
        <dc:title></dc:title>
      </cc:Work>
    </rdf:RDF>
  </metadata>
  <g
     inkscape:label="Layer 1"
     inkscape:groupmode="layer"
     id="layer1"
     transform="translate(1608.8902,542.97918)">
    <rect
       style="fill:#2d2d2d;fill-opacity:0.90338165;stroke:none"
       id="rect9295"
       width="1334.2858"
       height="582.85712"
       x="-701.71429"
       y="62.647911" />
    <rect
       style="fill:#969696;fill-opacity:1;stroke:none"
       id="rect3143"
       width="211.94176"
       height="177.65605"
       x="-311.4368"
       y="111.83774" />
    <rect
       style="fill:#969696;fill-opacity:1;stroke:none"
       id="rect3143-8"
       width="211.94176"
       height="177.65605"
       x="-309.73456"
       y="415.83774" />
    <path
       id="path4126"
       d="m -514.81871,135.01101 c 21.76086,0 39.39285,17.63199 39.39285,39.39285 0,5.18057 -1.06443,10.10468 -2.88512,14.6443 16.76001,4.5392 29.14702,19.69643 29.14702,37.87951 0,21.76086 -17.632,39.39286 -39.39285,39.39286 h -111.6131 c -18.1322,0 -32.82737,-14.69559 -32.82737,-32.82738 0,-18.13179 14.69558,-32.82738 32.82737,-32.82738 1.00657,0 1.94913,0.20517 2.93026,0.29503 -1.84654,-4.10342 -2.93026,-8.62991 -2.93026,-13.42599 0,-18.1322 14.69559,-32.82737 32.82738,-32.82737 5.92453,0 11.40629,1.69266 16.20196,4.43702 5.96309,-14.18266 19.97217,-24.13345 36.32186,-24.13345 m 0,-13.13096 c -16.79859,0 -32.22459,7.93766 -41.99607,20.95331 -3.44278,-0.83381 -6.95654,-1.25688 -10.52775,-1.25688 -25.33863,0 -45.95833,20.6197 -45.95833,45.95833 0,0.64137 0.0127,1.26961 0.0385,1.89784 -18.98489,5.6422 -32.86595,23.26148 -32.86595,44.0605 0,25.33863 20.6197,45.95833 45.95833,45.95833 h 111.6131 c 28.96769,0 52.52379,-23.55611 52.52379,-52.52381 0,-19.14493 -10.52774,-36.44373 -26.73625,-45.59928 0.32047,-2.28232 0.47435,-4.60363 0.47435,-6.92453 0,-28.95457 -23.5561,-52.52381 -52.52379,-52.52381 l 0,0 z"
       inkscape:connector-curvature="0"
       style="fill:#ffffff;fill-opacity:1" />
    <path
       inkscape:connector-curvature="0"
       d="m -514.81871,439.01101 c 21.76086,0 39.39285,17.63199 39.39285,39.39285 0,5.18057 -1.06443,10.10468 -2.88512,14.6443 16.76002,4.5392 29.14703,19.69643 29.14703,37.87951 0,21.76086 -17.632,39.39286 -39.39286,39.39286 h -111.6131 c -18.1322,0 -32.82737,-14.69559 -32.82737,-32.82738 0,-18.13179 14.69558,-32.82738 32.82737,-32.82738 1.00657,0 1.94913,0.20517 2.93026,0.29503 -1.84654,-4.10342 -2.93026,-8.62991 -2.93026,-13.42599 0,-18.1322 14.69559,-32.82737 32.82738,-32.82737 5.92453,0 11.40629,1.69266 16.20196,4.43702 5.96309,-14.18266 19.97217,-24.13345 36.32186,-24.13345 m 0,-13.13096 c -16.79859,0 -32.22459,7.93766 -41.99607,20.95331 -3.44278,-0.83381 -6.95654,-1.25688 -10.52775,-1.25688 -25.33863,0 -45.95833,20.6197 -45.95833,45.95833 0,0.64137 0.0127,1.26961 0.0385,1.89784 -18.98489,5.6422 -32.86595,23.26148 -32.86595,44.0605 0,25.33863 20.6197,45.95833 45.95833,45.95833 h 111.6131 c 28.9677,0 52.5238,-23.55611 52.5238,-52.52381 0,-19.14493 -10.52774,-36.44373 -26.73625,-45.59928 0.32047,-2.28232 0.47435,-4.60363 0.47435,-6.92453 0,-28.95457 -23.55611,-52.52381 -52.5238,-52.52381 l 0,0 z"
       id="path4135"
       style="fill:#ffffff;fill-opacity:1;stroke:none" />
    <rect
       style="fill:#969696;fill-opacity:1;stroke:none"
       id="rect3143-0"
       width="211.94176"
       height="177.65605"
       x="26.803333"
       y="114.65916" />
    <rect
       style="fill:#969696;fill-opacity:1;stroke:none"
       id="rect3143-8-4"
       width="211.94176"
       height="177.65605"
       x="28.505657"
       y="418.65915" />
    <rect
       style="fill:#969696;fill-opacity:1;stroke:none"
       id="rect3143-9"
       width="211.94176"
       height="177.65605"
       x="365.04373"
       y="266.65915" />
    <g
       id="g4433"
       transform="matrix(0.42294173,0,0,0.36360394,-455.56468,-51.58738)"
       style="fill:#fd8d3c;fill-opacity:1">
      <rect
         y="654.36206"
         x="60.60915"
         height="78.791893"
         width="177.78685"
         id="rect4427"
         style="fill:#fd8d3c;fill-opacity:1;stroke:none" />
      <path
         sodipodi:nodetypes="ccccc"
         inkscape:connector-curvature="0"
         id="rect4429"
         d="M 219.13641,693.758 219.2031,586.61514 326.34596,693.758 219.2031,800.90087 z"
         style="fill:#fd8d3c;fill-opacity:1;stroke:none" />
    </g>
    <g
       transform="matrix(0.42294173,0,0,0.36360394,-455.56468,252.41262)"
       id="g4389"
       style="fill:#fd8d3c;fill-opacity:1">
      <rect
         style="fill:#fd8d3c;fill-opacity:1;stroke:none"
         id="rect4391"
         width="177.78685"
         height="78.791893"
         x="60.60915"
         y="654.36206" />
      <path
         style="fill:#fd8d3c;fill-opacity:1;stroke:none"
         d="M 219.13641,693.758 219.2031,586.61514 326.34596,693.758 219.2031,800.90087 z"
         id="path4393"
         inkscape:connector-curvature="0"
         sodipodi:nodetypes="ccccc" />
    </g>
    <g
       id="g4395"
       transform="matrix(0.42294173,0,0,0.36360394,-116.4733,255.23404)"
       style="fill:#fd8d3c;fill-opacity:1">
      <rect
         y="654.36206"
         x="60.60915"
         height="78.791893"
         width="177.78685"
         id="rect4397"
         style="fill:#fd8d3c;fill-opacity:1;stroke:none" />
      <path
         sodipodi:nodetypes="ccccc"
         inkscape:connector-curvature="0"
         id="path4399"
         d="M 219.13641,693.758 219.2031,586.61514 326.34596,693.758 219.2031,800.90087 z"
         style="fill:#fd8d3c;fill-opacity:1;stroke:none" />
    </g>
    <g
       transform="matrix(0.42294173,0,0,0.36360394,-118.1756,-48.76596)"
       id="g4401"
       style="fill:#fd8d3c;fill-opacity:1">
      <rect
         style="fill:#fd8d3c;fill-opacity:1;stroke:none"
         id="rect4403"
         width="177.78685"
         height="78.791893"
         x="60.60915"
         y="654.36206" />
      <path
         style="fill:#fd8d3c;fill-opacity:1;stroke:none"
         d="M 219.13641,693.758 219.2031,586.61514 326.34596,693.758 219.2031,800.90087 z"
         id="path4405"
         inkscape:connector-curvature="0"
         sodipodi:nodetypes="ccccc" />
    </g>
    <g
       id="g4420"
       transform="matrix(0.38421576,0.17679922,-0.15199467,0.33031113,338.89197,-34.58703)">
      <rect
         y="654.36206"
         x="60.60915"
         height="78.791893"
         width="177.78685"
         id="rect4422"
         style="fill:#fd8d3c;fill-opacity:1;stroke:none" />
      <path
         sodipodi:nodetypes="ccccc"
         inkscape:connector-curvature="0"
         id="path4424"
         d="M 219.13641,693.758 219.2031,586.61514 326.34596,693.758 219.2031,800.90087 z"
         style="fill:#fd8d3c;fill-opacity:1;stroke:none" />
    </g>
    <g
       transform="matrix(0.38421576,-0.17679922,-0.15199467,-0.33031113,338.89197,752.15185)"
       id="g4426">
      <rect
         style="fill:#fd8d3c;fill-opacity:1;stroke:none"
         id="rect4428"
         width="177.78685"
         height="78.791893"
         x="60.60915"
         y="654.36206" />
      <path
         style="fill:#fd8d3c;fill-opacity:1;stroke:none"
         d="M 219.13641,693.758 219.2031,586.61514 326.34596,693.758 219.2031,800.90087 z"
         id="path4430"
         inkscape:connector-curvature="0"
         sodipodi:nodetypes="ccccc" />
    </g>
    <text
       xml:space="preserve"
       style="font-size:296.23895264px;font-style:normal;font-variant:normal;font-weight:bold;font-stretch:normal;line-height:125%;letter-spacing:0px;word-spacing:0px;fill:#000000;fill-opacity:1;stroke:none;font-family:Yanone Kaffeesatz;-inkscape-font-specification:Sans Bold"
       x="-1887.8473"
       y="904.69025"
       id="text9511"
       sodipodi:linespacing="125%"><tspan
         sodipodi:role="line"
         id="tspan9513"
         x="-1887.8473"
         y="904.69025" /></text>
  </g>
</svg>
